<svg height="64" viewBox="0 0 64 64" width="64" xmlns="http://www.w3.org/2000/svg"><g transform="matrix(.30657831 0 0 .30657831 -23.184105 91.121644)"><path d="m180.38043-93.09877-82.02473-39.24013-20.48494-88.65472 56.46957-71.31478 90.90722-.2805 56.88181 70.97478-19.95793 88.78222z" fill="#fff"/><path d="m180.38055-90.84927a2.2455 2.2455 0 0 1 -.97074-.22072l-82.02466-39.24024a2.2474 2.2474 0 0 1 -1.22056-1.522l-20.48489-88.65511a2.25057 2.25057 0 0 1 .42827-1.90249l56.4692-71.3147a2.24952 2.24952 0 0 1 1.75589-.85269l90.90736-.28057h.007a2.24819 2.24819 0 0 1 1.7548.84226l56.88168 70.97483a2.24892 2.24892 0 0 1 .43925 1.89975l-19.95779 88.78249a2.24746 2.24746 0 0 1 -1.21123 1.52968l-81.79076 39.7333a2.25319 2.25319 0 0 1 -.98282.22621zm-80.07714-43.05073 80.06946 38.30464 79.84159-38.78564 19.48341-86.67081-55.52756-69.28478-88.73967.274-55.12511 69.617z" fill="#3c6eb4"/><path d="m161.07175-136.9275-2.82876-3.49642 20.25154-16.37957 2.82876 3.49642zm52.98541-6.59532-4.4957-.14934.867-26.02656 4.4957.14935zm-64.05282-23.726-25.64825-4.59014.79284-4.42762 25.64826 4.59014zm91.245-20.18785-19.91548-16.77048 2.89684-3.44041 19.91552 16.76939zm-105.38714-17.23718-12.24844-22.97543 3.96861-2.11608 12.24844 22.97543zm64.70071-29.686-.95866-4.39467 25.44016-5.55048.95866 4.39467zm-37.32237-1.58019-4.10587-1.83716 10.6331-23.76607 4.10587 1.83716z" fill="#3c6eb4"/><g fill="#294172"><path d="m144.65505-274.3267-4.012 2.04 16.3072 32.0959-20.58269-4.39449-.935 4.39874 24.13992 5.14247 7.19952 14.16521 1.53-1.93374 2.52449-.0127zm71.74827.2125-16.15 32.1724-8.68271-19.16744-4.10119 1.85724 10.18721 22.48243-6.97847 13.89747h.918l2.52023 3.15774 26.29892-52.38534zm16.677 44.34436-11.60252 21.78118-15.53794 2.99624.23375.289-1.01149 4.437 58.18231-11.22-.85-4.42-35.35989 6.82123 9.90246-18.5724zm-134.92013 13.86346-.85 4.42 35.53839 6.85524-16.32844 13.75294 2.89849 3.44249 19.11219-16.0862 16.26045 3.13649-.969-4.14373.425-.5355zm103.02817 33.34965-.12749.56524-3.90149 1.887 44.96487 38.92987 2.94524-3.41274-27.21266-23.56192 20.71443-3.69748-.78625-4.43274-24.30142 4.352zm-42.17262.391-43.41361 37.58263 2.94524 3.4 27.36991-23.68943.7225 21.33493 4.49223-.1445-.83725-24.96867 12.96246-11.22-4.165-1.98474zm18.64044 9.18v58.81553h4.488v-35.99739l16.36245 13.23445 2.82624-3.49348-19.18444-15.5252v-16.87246l-2.057.99875z"/><path d="m180.1-169.56365a2.25359 2.25359 0 0 1 -.96964-.21962l-21.01636-10.04341a2.251 2.251 0 0 1 -1.22111-1.5209l-5.26109-22.69486a2.2493 2.2493 0 0 1 .42936-1.90633l14.48806-18.24967a2.24914 2.24914 0 0 1 1.75424-.85049l23.29-.0719h.007a2.24992 2.24992 0 0 1 1.75425.84171l14.577 18.1684a2.24867 2.24867 0 0 1 .4398 1.9014l-5.12109 22.72451a2.25047 2.25047 0 0 1 -1.21232 1.52968l-20.95654 10.1664a2.24728 2.24728 0 0 1 -.9817.22511zm-19.07-13.855 19.06283 9.11 19.00791-9.22091 4.6445-20.61173-13.2208-16.47837-21.12509.0653-13.14121 16.55252z"/></g></g></svg>